<?xml version="1.0" encoding="UTF-8" standalone="no"?><svg xmlns="http://www.w3.org/2000/svg" xmlns:xlink="http://www.w3.org/1999/xlink" contentScriptType="application/ecmascript" contentStyleType="text/css" height="597px" preserveAspectRatio="none" style="width:601px;height:597px;" version="1.1" viewBox="0 0 601 597" width="601px" zoomAndPan="magnify"><defs><filter height="300%" id="frrduw00sci6c" width="300%" x="-1" y="-1"><feGaussianBlur result="blurOut" stdDeviation="2.0"/><feColorMatrix in="blurOut" result="blurOut2" type="matrix" values="0 0 0 0 0 0 0 0 0 0 0 0 0 0 0 0 0 0 .4 0"/><feOffset dx="4.0" dy="4.0" in="blurOut2" result="blurOut3"/><feBlend in="SourceGraphic" in2="blurOut3" mode="normal"/></filter></defs><g><text fill="#888888" font-family="sans-serif" font-size="10" lengthAdjust="spacingAndGlyphs" textLength="101" x="488" y="9.668">Futbolín architecture</text><text fill="#000000" font-family="sans-serif" font-size="18" lengthAdjust="spacingAndGlyphs" textLength="105" x="242" y="29.1797">Logical view</text><!--MD5=[056db7644fd855972490fe1694f3faa1]
cluster External--><polygon fill="#FFFFFF" filter="url(#frrduw00sci6c)" points="300,56.9766,364,56.9766,371,79.4648,455,79.4648,455,143.9766,300,143.9766,300,56.9766" style="stroke: #000000; stroke-width: 1.5;"/><line style="stroke: #000000; stroke-width: 1.5;" x1="300" x2="371" y1="79.4648" y2="79.4648"/><text fill="#000000" font-family="sans-serif" font-size="14" font-weight="bold" lengthAdjust="spacingAndGlyphs" textLength="58" x="304" y="72.5117">External</text><!--MD5=[fe4d4757f17ad1ff20eeccacaff789eb]
entity google--><rect fill="#FEFECE" filter="url(#frrduw00sci6c)" height="36.4883" style="stroke: #A80036; stroke-width: 1.5;" width="69" x="316.5" y="91.9766"/><rect fill="#FEFECE" height="5" style="stroke: #A80036; stroke-width: 1.5;" width="10" x="311.5" y="96.9766"/><rect fill="#FEFECE" height="5" style="stroke: #A80036; stroke-width: 1.5;" width="10" x="311.5" y="118.4648"/><text fill="#000000" font-family="sans-serif" font-size="14" lengthAdjust="spacingAndGlyphs" textLength="49" x="326.5" y="115.5117">Google</text><!--MD5=[865d822f2a4cf17fa78fc36c516f4cee]
entity authp--><ellipse cx="430" cy="109.9766" fill="#FEFECE" filter="url(#frrduw00sci6c)" rx="8" ry="8" style="stroke: #A80036; stroke-width: 2.0;"/><text fill="#000000" font-family="sans-serif" font-size="14" lengthAdjust="spacingAndGlyphs" textLength="139" x="360.5" y="140.5117">Authentication page</text><!--MD5=[2021705b656b270ae1616113380bc97f]
entity webapp--><rect fill="#FEFECE" filter="url(#frrduw00sci6c)" height="36.4883" style="stroke: #A80036; stroke-width: 1.5;" width="131" x="262.5" y="193.4766"/><rect fill="#FEFECE" height="5" style="stroke: #A80036; stroke-width: 1.5;" width="10" x="257.5" y="198.4766"/><rect fill="#FEFECE" height="5" style="stroke: #A80036; stroke-width: 1.5;" width="10" x="257.5" y="219.9648"/><text fill="#000000" font-family="sans-serif" font-size="14" lengthAdjust="spacingAndGlyphs" textLength="111" x="272.5" y="217.0117">Web Application</text><!--MD5=[589edd9353dedecae65537e61efa0ad8]
entity authep--><ellipse cx="438" cy="211.4766" fill="#FEFECE" filter="url(#frrduw00sci6c)" rx="8" ry="8" style="stroke: #A80036; stroke-width: 2.0;"/><text fill="#000000" font-family="sans-serif" font-size="14" lengthAdjust="spacingAndGlyphs" textLength="167" x="354.5" y="242.0117">Authentication endpoint</text><!--MD5=[1affcf8a646183f59d752b76f98e02e7]
entity views--><ellipse cx="218" cy="211.4766" fill="#FEFECE" filter="url(#frrduw00sci6c)" rx="8" ry="8" style="stroke: #A80036; stroke-width: 2.0;"/><text fill="#000000" font-family="sans-serif" font-size="14" lengthAdjust="spacingAndGlyphs" textLength="74" x="181" y="242.0117">User Views</text><path d="M6,190.9766 L6,231.5977 A0,0 0 0 0 6,231.5977 L174,231.5977 A0,0 0 0 0 174,231.5977 L174,215.4766 L208.82,211.4766 L174,207.4766 L174,200.9766 L164,190.9766 L6,190.9766 A0,0 0 0 0 6,190.9766 " fill="#FBFB77" filter="url(#frrduw00sci6c)" style="stroke: #A80036; stroke-width: 1.0;"/><path d="M164,190.9766 L164,200.9766 L174,200.9766 L164,190.9766 " fill="#FBFB77" style="stroke: #A80036; stroke-width: 1.0;"/><text fill="#000000" font-family="sans-serif" font-size="13" lengthAdjust="spacingAndGlyphs" textLength="131" x="12" y="208.5449">Server-side rendered</text><text fill="#000000" font-family="sans-serif" font-size="13" lengthAdjust="spacingAndGlyphs" textLength="147" x="12" y="223.8555">pages probably suffice.</text><!--MD5=[c21c6209adb761c2c6f92b8fc687f537]
entity bus--><path d="M279.5,316.4766 L376.5,316.4766 C381.5,316.4766 381.5,329.7207 381.5,329.7207 C381.5,329.7207 381.5,342.9648 376.5,342.9648 L279.5,342.9648 C274.5,342.9648 274.5,329.7207 274.5,329.7207 C274.5,329.7207 274.5,316.4766 279.5,316.4766 " fill="#FEFECE" filter="url(#frrduw00sci6c)" style="stroke: #A80036; stroke-width: 1.5;"/><path d="M376.5,316.4766 C371.5,316.4766 371.5,329.7207 371.5,329.7207 C371.5,342.9648 376.5,342.9648 376.5,342.9648 " fill="none" style="stroke: #A80036; stroke-width: 1.5;"/><text fill="#000000" font-family="sans-serif" font-size="14" lengthAdjust="spacingAndGlyphs" textLength="87" x="279.5" y="335.0117">Message Bus</text><path d="M74.5,308.9766 L74.5,349.5977 A0,0 0 0 0 74.5,349.5977 L239.5,349.5977 A0,0 0 0 0 239.5,349.5977 L239.5,333.4766 L274.27,329.4766 L239.5,325.4766 L239.5,318.9766 L229.5,308.9766 L74.5,308.9766 A0,0 0 0 0 74.5,308.9766 " fill="#FBFB77" filter="url(#frrduw00sci6c)" style="stroke: #A80036; stroke-width: 1.0;"/><path d="M229.5,308.9766 L229.5,318.9766 L239.5,318.9766 L229.5,308.9766 " fill="#FBFB77" style="stroke: #A80036; stroke-width: 1.0;"/><text fill="#000000" font-family="sans-serif" font-size="13" lengthAdjust="spacingAndGlyphs" textLength="131" x="80.5" y="326.5449">Messages don't need</text><text fill="#000000" font-family="sans-serif" font-size="13" lengthAdjust="spacingAndGlyphs" textLength="144" x="80.5" y="341.8555">to be human-readable.</text><!--MD5=[4d0fb61d54c5aa47a39a8fe2a687bdfb]
entity usersrv--><rect fill="#FEFECE" filter="url(#frrduw00sci6c)" height="36.4883" style="stroke: #A80036; stroke-width: 1.5;" width="103" x="111.5" y="426.9766"/><rect fill="#FEFECE" height="5" style="stroke: #A80036; stroke-width: 1.5;" width="10" x="106.5" y="431.9766"/><rect fill="#FEFECE" height="5" style="stroke: #A80036; stroke-width: 1.5;" width="10" x="106.5" y="453.4648"/><text fill="#000000" font-family="sans-serif" font-size="14" lengthAdjust="spacingAndGlyphs" textLength="83" x="121.5" y="450.5117">User Service</text><!--MD5=[b9ce3195f292dd349fa847847e7f7228]
entity tournamentsrv--><rect fill="#FEFECE" filter="url(#frrduw00sci6c)" height="36.4883" style="stroke: #A80036; stroke-width: 1.5;" width="157" x="249.5" y="426.9766"/><rect fill="#FEFECE" height="5" style="stroke: #A80036; stroke-width: 1.5;" width="10" x="244.5" y="431.9766"/><rect fill="#FEFECE" height="5" style="stroke: #A80036; stroke-width: 1.5;" width="10" x="244.5" y="453.4648"/><text fill="#000000" font-family="sans-serif" font-size="14" lengthAdjust="spacingAndGlyphs" textLength="137" x="259.5" y="450.5117">Tournament Service</text><!--MD5=[571d3c9819591c9731a1b746b382132f]
entity matchsrv--><rect fill="#FEFECE" filter="url(#frrduw00sci6c)" height="36.4883" style="stroke: #A80036; stroke-width: 1.5;" width="113" x="441.5" y="426.9766"/><rect fill="#FEFECE" height="5" style="stroke: #A80036; stroke-width: 1.5;" width="10" x="436.5" y="431.9766"/><rect fill="#FEFECE" height="5" style="stroke: #A80036; stroke-width: 1.5;" width="10" x="436.5" y="453.4648"/><text fill="#000000" font-family="sans-serif" font-size="14" lengthAdjust="spacingAndGlyphs" textLength="93" x="451.5" y="450.5117">Match Service</text><!--MD5=[62f8c3ce554a6fc509fd451144204b25]
entity userdb--><path d="M117.5,549.9766 C117.5,539.9766 163,539.9766 163,539.9766 C163,539.9766 208.5,539.9766 208.5,549.9766 L208.5,575.4648 C208.5,585.4648 163,585.4648 163,585.4648 C163,585.4648 117.5,585.4648 117.5,575.4648 L117.5,549.9766 " fill="#FEFECE" filter="url(#frrduw00sci6c)" style="stroke: #000000; stroke-width: 1.5;"/><path d="M117.5,549.9766 C117.5,559.9766 163,559.9766 163,559.9766 C163,559.9766 208.5,559.9766 208.5,549.9766 " fill="none" style="stroke: #000000; stroke-width: 1.5;"/><text fill="#000000" font-family="sans-serif" font-size="14" lengthAdjust="spacingAndGlyphs" textLength="71" x="127.5" y="577.5117">User Store</text><!--MD5=[62243f6bfef9fff7dd2e0be5aea3f63e]
entity matchdb--><path d="M425.5,549.9766 C425.5,539.9766 498,539.9766 498,539.9766 C498,539.9766 570.5,539.9766 570.5,549.9766 L570.5,575.4648 C570.5,585.4648 498,585.4648 498,585.4648 C498,585.4648 425.5,585.4648 425.5,575.4648 L425.5,549.9766 " fill="#FEFECE" filter="url(#frrduw00sci6c)" style="stroke: #000000; stroke-width: 1.5;"/><path d="M425.5,549.9766 C425.5,559.9766 498,559.9766 498,559.9766 C498,559.9766 570.5,559.9766 570.5,549.9766 " fill="none" style="stroke: #000000; stroke-width: 1.5;"/><text fill="#000000" font-family="sans-serif" font-size="14" lengthAdjust="spacingAndGlyphs" textLength="125" x="435.5" y="577.5117">Tournament Store</text><!--MD5=[9ce7b9a51c8e887a7ef654c69fce9b80]
entity tournamentdb--><path d="M277.5,549.9766 C277.5,539.9766 328,539.9766 328,539.9766 C328,539.9766 378.5,539.9766 378.5,549.9766 L378.5,575.4648 C378.5,585.4648 328,585.4648 328,585.4648 C328,585.4648 277.5,585.4648 277.5,575.4648 L277.5,549.9766 " fill="#FEFECE" filter="url(#frrduw00sci6c)" style="stroke: #000000; stroke-width: 1.5;"/><path d="M277.5,549.9766 C277.5,559.9766 328,559.9766 328,559.9766 C328,559.9766 378.5,559.9766 378.5,549.9766 " fill="none" style="stroke: #000000; stroke-width: 1.5;"/><text fill="#000000" font-family="sans-serif" font-size="14" lengthAdjust="spacingAndGlyphs" textLength="81" x="287.5" y="577.5117">Match Store</text><!--MD5=[b15cd702087f7a221f28e03b39620cad]
link authp to google--><path d="M420.97,109.9766 C409.17,109.9766 397.37,109.9766 385.56,109.9766 " fill="none" id="authp-google" style="stroke: #A80036; stroke-width: 1.0;"/><!--MD5=[2e3d836431052b58fce5d3c3a7b76593]
link views to webapp--><path d="M227.02,211.4766 C238.73,211.4766 250.43,211.4766 262.13,211.4766 " fill="none" id="views-webapp" style="stroke: #A80036; stroke-width: 1.0;"/><!--MD5=[a0aed40fffa6e1ee7f539272e7f7a78c]
link webapp to authep--><path d="M393.74,211.4766 C405.38,211.4766 417.02,211.4766 428.66,211.4766 " fill="none" id="webapp-authep" style="stroke: #A80036; stroke-width: 1.0;"/><!--MD5=[b6a3ebaac54bc743300b5a9a906bfc14]
link authep to authp--><path d="M437.34,202.2166 C435.83,183.4566 432.15,137.7766 430.65,119.1166 " fill="none" id="authep-authp" style="stroke: #A80036; stroke-width: 1.0; stroke-dasharray: 7.0,7.0;"/><!--MD5=[59a6325713bc345ea96f63a588e6de44]
link webapp to bus--><path d="M309.91,229.4866 C301.84,238.3066 293.23,249.7766 289,261.9766 C282.51,280.7066 296.58,300.0166 309.59,312.9666 " fill="none" id="webapp-&gt;bus" style="stroke: #A80036; stroke-width: 1.0; stroke-dasharray: 7.0,7.0;"/><polygon fill="#A80036" points="313.21,316.4466,309.4891,307.3276,309.6036,312.9833,303.9479,313.0978,313.21,316.4466" style="stroke: #A80036; stroke-width: 1.0;"/><text fill="#000000" font-family="sans-serif" font-size="13" lengthAdjust="spacingAndGlyphs" textLength="47" x="290" y="275.5449">publish</text><!--MD5=[59a6325713bc345ea96f63a588e6de44]
link webapp to bus--><!--MD5=[3e7f92bc5848606558a64fb93e8a00bd]
link bus to usersrv--><path d="M310.34,342.6266 C282.1,362.0566 226.46,400.3266 192.22,423.8766 " fill="none" id="bus-&gt;usersrv" style="stroke: #A80036; stroke-width: 1.0; stroke-dasharray: 7.0,7.0;"/><polygon fill="#A80036" points="187.74,426.9566,197.4225,425.154,191.8602,424.1239,192.8903,418.5616,187.74,426.9566" style="stroke: #A80036; stroke-width: 1.0;"/><text fill="#000000" font-family="sans-serif" font-size="13" lengthAdjust="spacingAndGlyphs" textLength="57" x="257" y="393.5449">consume</text><!--MD5=[b22ba9a1e013cca4acd94abdbbb7bc1d]
link usersrv to userdb--><path d="M163,463.0166 C163,481.8366 163,512.4066 163,534.4866 " fill="none" id="usersrv-&gt;userdb" style="stroke: #A80036; stroke-width: 1.0; stroke-dasharray: 7.0,7.0;"/><polygon fill="#A80036" points="163,539.6266,167,530.6266,163,534.6266,159,530.6266,163,539.6266" style="stroke: #A80036; stroke-width: 1.0;"/><text fill="#000000" font-family="sans-serif" font-size="13" lengthAdjust="spacingAndGlyphs" textLength="22" x="164" y="506.5449">use</text><!--MD5=[540d7795925a4786892aa96694b5db23]
link bus to matchsrv--><path d="M346.19,342.6266 C375.41,362.1266 433.09,400.6366 468.33,424.1666 " fill="none" id="bus-&gt;matchsrv" style="stroke: #A80036; stroke-width: 1.0; stroke-dasharray: 7.0,7.0;"/><polygon fill="#A80036" points="472.51,426.9566,467.2403,418.6361,468.3497,424.1831,462.8027,425.2925,472.51,426.9566" style="stroke: #A80036; stroke-width: 1.0;"/><text fill="#000000" font-family="sans-serif" font-size="13" lengthAdjust="spacingAndGlyphs" textLength="57" x="424" y="393.5449">consume</text><!--MD5=[2ee8607bc9553c60ad8d89eece44c098]
link matchsrv to matchdb--><path d="M498,463.0166 C498,481.8366 498,512.4066 498,534.4866 " fill="none" id="matchsrv-&gt;matchdb" style="stroke: #A80036; stroke-width: 1.0; stroke-dasharray: 7.0,7.0;"/><polygon fill="#A80036" points="498,539.6266,502,530.6266,498,534.6266,494,530.6266,498,539.6266" style="stroke: #A80036; stroke-width: 1.0;"/><text fill="#000000" font-family="sans-serif" font-size="13" lengthAdjust="spacingAndGlyphs" textLength="22" x="499" y="506.5449">use</text><!--MD5=[6f6e079de3def2366beb4f825c24a209]
link bus to tournamentsrv--><path d="M328,342.6266 C328,361.4466 328,397.9466 328,421.6266 " fill="none" id="bus-&gt;tournamentsrv" style="stroke: #A80036; stroke-width: 1.0; stroke-dasharray: 7.0,7.0;"/><polygon fill="#A80036" points="328,426.7566,332,417.7566,328,421.7566,324,417.7566,328,426.7566" style="stroke: #A80036; stroke-width: 1.0;"/><text fill="#000000" font-family="sans-serif" font-size="13" lengthAdjust="spacingAndGlyphs" textLength="57" x="329" y="393.5449">consume</text><!--MD5=[f3038b5cb908db0ac642a721dce5afd2]
link tournamentsrv to tournamentdb--><path d="M328,463.0166 C328,481.8366 328,512.4066 328,534.4866 " fill="none" id="tournamentsrv-&gt;tournamentdb" style="stroke: #A80036; stroke-width: 1.0; stroke-dasharray: 7.0,7.0;"/><polygon fill="#A80036" points="328,539.6266,332,530.6266,328,534.6266,324,530.6266,328,539.6266" style="stroke: #A80036; stroke-width: 1.0;"/><text fill="#000000" font-family="sans-serif" font-size="13" lengthAdjust="spacingAndGlyphs" textLength="22" x="329" y="506.5449">use</text><!--MD5=[4bd15f8311c4dcbb2f35fe8fdf0528e6]
link google to webapp--><!--MD5=[bfa594a9b3de374ddfb6997904d84dc4]
@startuml

header Futbolín architecture

title Logical view

package "External" {
    component [Google] as google
    () "Authentication page" as authp
    authp - google
}

component [Web Application] as webapp
() "Authentication endpoint" as authep
() "User Views" as views
note left of views
Server-side rendered
pages probably suffice.
end note
views - webapp
webapp - authep

authep .. authp

queue "Message Bus" as bus

webapp ..> bus : publish

note left of bus
Messages don't need
to be human-readable.
end note

component [User Service] as usersrv
component [Tournament Service] as tournamentsrv
component [Match Service] as matchsrv

database "User Store" as userdb
database "Tournament Store" as matchdb
database "Match Store" as tournamentdb

bus ..> usersrv : consume
usersrv ..> userdb : use
bus ..> matchsrv : consume
matchsrv ..> matchdb : use
bus ..> tournamentsrv : consume
tournamentsrv ..> tournamentdb : use

google .[hidden]. webapp
webapp .[hidden]. bus

@enduml

PlantUML version 1.2020.07(Sun Apr 19 13:42:40 CEST 2020)
(GPL source distribution)
Java Runtime: OpenJDK Runtime Environment
JVM: OpenJDK 64-Bit Server VM
Java Version: 13.0.2+8
Operating System: Mac OS X
Default Encoding: UTF-8
Language: en
Country: GB
--></g></svg>