<?xml version="1.0" encoding="UTF-8" standalone="no"?><svg xmlns="http://www.w3.org/2000/svg" xmlns:xlink="http://www.w3.org/1999/xlink" contentScriptType="application/ecmascript" contentStyleType="text/css" height="612px" preserveAspectRatio="none" style="width:558px;height:612px;" version="1.1" viewBox="0 0 558 612" width="558px" zoomAndPan="magnify"><defs><filter height="300%" id="f9i5s6q6udop5" width="300%" x="-1" y="-1"><feGaussianBlur result="blurOut" stdDeviation="2.0"/><feColorMatrix in="blurOut" result="blurOut2" type="matrix" values="0 0 0 0 0 0 0 0 0 0 0 0 0 0 0 0 0 0 .4 0"/><feOffset dx="4.0" dy="4.0" in="blurOut2" result="blurOut3"/><feBlend in="SourceGraphic" in2="blurOut3" mode="normal"/></filter></defs><g><text fill="#888888" font-family="sans-serif" font-size="10" lengthAdjust="spacingAndGlyphs" textLength="106" x="440" y="10.3809">Futbolín architecture</text><text fill="#000000" font-family="sans-serif" font-size="18" lengthAdjust="spacingAndGlyphs" textLength="98" x="224" y="31.2637">Logical view</text><!--MD5=[056db7644fd855972490fe1694f3faa1]
cluster External--><polygon fill="#FFFFFF" filter="url(#f9i5s6q6udop5)" points="277,59.2188,341,59.2188,348,82.8281,428,82.8281,428,149.2188,277,149.2188,277,59.2188" style="stroke: #000000; stroke-width: 1.5;"/><line style="stroke: #000000; stroke-width: 1.5;" x1="277" x2="348" y1="82.8281" y2="82.8281"/><text fill="#000000" font-family="sans-serif" font-size="14" font-weight="bold" lengthAdjust="spacingAndGlyphs" textLength="58" x="281" y="75.752">External</text><!--MD5=[fe4d4757f17ad1ff20eeccacaff789eb]
entity google--><rect fill="#FEFECE" filter="url(#f9i5s6q6udop5)" height="37.6094" style="stroke: #A80036; stroke-width: 1.5;" width="66" x="293" y="95.2188"/><rect fill="#FEFECE" height="5" style="stroke: #A80036; stroke-width: 1.5;" width="10" x="288" y="100.2188"/><rect fill="#FEFECE" height="5" style="stroke: #A80036; stroke-width: 1.5;" width="10" x="288" y="122.8281"/><text fill="#000000" font-family="sans-serif" font-size="14" lengthAdjust="spacingAndGlyphs" textLength="46" x="303" y="119.752">Google</text><!--MD5=[865d822f2a4cf17fa78fc36c516f4cee]
entity authp--><ellipse cx="403" cy="114.2188" fill="#FEFECE" filter="url(#f9i5s6q6udop5)" rx="8" ry="8" style="stroke: #A80036; stroke-width: 2.0;"/><text fill="#000000" font-family="sans-serif" font-size="14" lengthAdjust="spacingAndGlyphs" textLength="126" x="340" y="145.752">Authentication page</text><!--MD5=[2021705b656b270ae1616113380bc97f]
entity webapp--><rect fill="#FEFECE" filter="url(#f9i5s6q6udop5)" height="37.6094" style="stroke: #A80036; stroke-width: 1.5;" width="122" x="248" y="198.7188"/><rect fill="#FEFECE" height="5" style="stroke: #A80036; stroke-width: 1.5;" width="10" x="243" y="203.7188"/><rect fill="#FEFECE" height="5" style="stroke: #A80036; stroke-width: 1.5;" width="10" x="243" y="226.3281"/><text fill="#000000" font-family="sans-serif" font-size="14" lengthAdjust="spacingAndGlyphs" textLength="102" x="258" y="223.252">Web Application</text><!--MD5=[589edd9353dedecae65537e61efa0ad8]
entity authep--><ellipse cx="414" cy="217.7188" fill="#FEFECE" filter="url(#f9i5s6q6udop5)" rx="8" ry="8" style="stroke: #A80036; stroke-width: 2.0;"/><text fill="#000000" font-family="sans-serif" font-size="14" lengthAdjust="spacingAndGlyphs" textLength="149" x="339.5" y="249.252">Authentication endpoint</text><!--MD5=[1affcf8a646183f59d752b76f98e02e7]
entity views--><ellipse cx="204" cy="217.7188" fill="#FEFECE" filter="url(#f9i5s6q6udop5)" rx="8" ry="8" style="stroke: #A80036; stroke-width: 2.0;"/><text fill="#000000" font-family="sans-serif" font-size="14" lengthAdjust="spacingAndGlyphs" textLength="69" x="169.5" y="249.252">User Views</text><path d="M6,196.2188 L6,238.9219 A0,0 0 0 0 6,238.9219 L160,238.9219 A0,0 0 0 0 160,238.9219 L160,221.7188 L194.728,217.7188 L160,213.7188 L160,206.2188 L150,196.2188 L6,196.2188 A0,0 0 0 0 6,196.2188 " fill="#FBFB77" filter="url(#f9i5s6q6udop5)" style="stroke: #A80036; stroke-width: 1.0;"/><path d="M150,196.2188 L150,206.2188 L160,206.2188 L150,196.2188 " fill="#FBFB77" style="stroke: #A80036; stroke-width: 1.0;"/><text fill="#000000" font-family="sans-serif" font-size="13" lengthAdjust="spacingAndGlyphs" textLength="118" x="12" y="214.7139">Server-side rendered</text><text fill="#000000" font-family="sans-serif" font-size="13" lengthAdjust="spacingAndGlyphs" textLength="133" x="12" y="231.0654">pages probably suffice.</text><!--MD5=[c21c6209adb761c2c6f92b8fc687f537]
entity bus--><path d="M261.5,324.7188 L356.5,324.7188 C361.5,324.7188 361.5,338.5234 361.5,338.5234 C361.5,338.5234 361.5,352.3281 356.5,352.3281 L261.5,352.3281 C256.5,352.3281 256.5,338.5234 256.5,338.5234 C256.5,338.5234 256.5,324.7188 261.5,324.7188 " fill="#FEFECE" filter="url(#f9i5s6q6udop5)" style="stroke: #A80036; stroke-width: 1.5;"/><path d="M356.5,324.7188 C351.5,324.7188 351.5,338.5234 351.5,338.5234 C351.5,352.3281 356.5,352.3281 356.5,352.3281 " fill="none" style="stroke: #A80036; stroke-width: 1.5;"/><text fill="#000000" font-family="sans-serif" font-size="14" lengthAdjust="spacingAndGlyphs" textLength="85" x="261.5" y="344.252">Message Bus</text><path d="M71,317.2188 L71,359.9219 A0,0 0 0 0 71,359.9219 L221,359.9219 A0,0 0 0 0 221,359.9219 L221,342.7188 L256.486,338.7188 L221,334.7188 L221,327.2188 L211,317.2188 L71,317.2188 A0,0 0 0 0 71,317.2188 " fill="#FBFB77" filter="url(#f9i5s6q6udop5)" style="stroke: #A80036; stroke-width: 1.0;"/><path d="M211,317.2188 L211,327.2188 L221,327.2188 L211,317.2188 " fill="#FBFB77" style="stroke: #A80036; stroke-width: 1.0;"/><text fill="#000000" font-family="sans-serif" font-size="13" lengthAdjust="spacingAndGlyphs" textLength="123" x="77" y="335.7139">Messages don't need</text><text fill="#000000" font-family="sans-serif" font-size="13" lengthAdjust="spacingAndGlyphs" textLength="129" x="77" y="352.0654">to be human-readable.</text><!--MD5=[4d0fb61d54c5aa47a39a8fe2a687bdfb]
entity usersrv--><rect fill="#FEFECE" filter="url(#f9i5s6q6udop5)" height="37.6094" style="stroke: #A80036; stroke-width: 1.5;" width="100" x="100" y="438.2188"/><rect fill="#FEFECE" height="5" style="stroke: #A80036; stroke-width: 1.5;" width="10" x="95" y="443.2188"/><rect fill="#FEFECE" height="5" style="stroke: #A80036; stroke-width: 1.5;" width="10" x="95" y="465.8281"/><text fill="#000000" font-family="sans-serif" font-size="14" lengthAdjust="spacingAndGlyphs" textLength="80" x="110" y="462.752">User Service</text><!--MD5=[b9ce3195f292dd349fa847847e7f7228]
entity tournamentsrv--><rect fill="#FEFECE" filter="url(#f9i5s6q6udop5)" height="37.6094" style="stroke: #A80036; stroke-width: 1.5;" width="148" x="235" y="438.2188"/><rect fill="#FEFECE" height="5" style="stroke: #A80036; stroke-width: 1.5;" width="10" x="230" y="443.2188"/><rect fill="#FEFECE" height="5" style="stroke: #A80036; stroke-width: 1.5;" width="10" x="230" y="465.8281"/><text fill="#000000" font-family="sans-serif" font-size="14" lengthAdjust="spacingAndGlyphs" textLength="128" x="245" y="462.752">Tournament Service</text><!--MD5=[571d3c9819591c9731a1b746b382132f]
entity matchsrv--><rect fill="#FEFECE" filter="url(#f9i5s6q6udop5)" height="37.6094" style="stroke: #A80036; stroke-width: 1.5;" width="109" x="418.5" y="438.2188"/><rect fill="#FEFECE" height="5" style="stroke: #A80036; stroke-width: 1.5;" width="10" x="413.5" y="443.2188"/><rect fill="#FEFECE" height="5" style="stroke: #A80036; stroke-width: 1.5;" width="10" x="413.5" y="465.8281"/><text fill="#000000" font-family="sans-serif" font-size="14" lengthAdjust="spacingAndGlyphs" textLength="89" x="428.5" y="462.752">Match Service</text><!--MD5=[62f8c3ce554a6fc509fd451144204b25]
entity userdb--><path d="M106.5,564.2188 C106.5,554.2188 150,554.2188 150,554.2188 C150,554.2188 193.5,554.2188 193.5,564.2188 L193.5,590.8281 C193.5,600.8281 150,600.8281 150,600.8281 C150,600.8281 106.5,600.8281 106.5,590.8281 L106.5,564.2188 " fill="#FEFECE" filter="url(#f9i5s6q6udop5)" style="stroke: #000000; stroke-width: 1.5;"/><path d="M106.5,564.2188 C106.5,574.2188 150,574.2188 150,574.2188 C150,574.2188 193.5,574.2188 193.5,564.2188 " fill="none" style="stroke: #000000; stroke-width: 1.5;"/><text fill="#000000" font-family="sans-serif" font-size="14" lengthAdjust="spacingAndGlyphs" textLength="67" x="116.5" y="592.752">User Store</text><!--MD5=[9ce7b9a51c8e887a7ef654c69fce9b80]
entity tournamentdb--><path d="M241.5,564.2188 C241.5,554.2188 309,554.2188 309,554.2188 C309,554.2188 376.5,554.2188 376.5,564.2188 L376.5,590.8281 C376.5,600.8281 309,600.8281 309,600.8281 C309,600.8281 241.5,600.8281 241.5,590.8281 L241.5,564.2188 " fill="#FEFECE" filter="url(#f9i5s6q6udop5)" style="stroke: #000000; stroke-width: 1.5;"/><path d="M241.5,564.2188 C241.5,574.2188 309,574.2188 309,574.2188 C309,574.2188 376.5,574.2188 376.5,564.2188 " fill="none" style="stroke: #000000; stroke-width: 1.5;"/><text fill="#000000" font-family="sans-serif" font-size="14" lengthAdjust="spacingAndGlyphs" textLength="115" x="251.5" y="592.752">Tournament Store</text><!--MD5=[62243f6bfef9fff7dd2e0be5aea3f63e]
entity matchdb--><path d="M425,564.2188 C425,554.2188 473,554.2188 473,554.2188 C473,554.2188 521,554.2188 521,564.2188 L521,590.8281 C521,600.8281 473,600.8281 473,600.8281 C473,600.8281 425,600.8281 425,590.8281 L425,564.2188 " fill="#FEFECE" filter="url(#f9i5s6q6udop5)" style="stroke: #000000; stroke-width: 1.5;"/><path d="M425,564.2188 C425,574.2188 473,574.2188 473,574.2188 C473,574.2188 521,574.2188 521,564.2188 " fill="none" style="stroke: #000000; stroke-width: 1.5;"/><text fill="#000000" font-family="sans-serif" font-size="14" lengthAdjust="spacingAndGlyphs" textLength="76" x="435" y="592.752">Match Store</text><!--MD5=[b15cd702087f7a221f28e03b39620cad]
link authp to google--><path d="M393.737,114.2188 C382.187,114.2188 370.636,114.2188 359.086,114.2188 " fill="none" id="authp-google" style="stroke: #A80036; stroke-width: 1.0;"/><!--MD5=[2e3d836431052b58fce5d3c3a7b76593]
link views to webapp--><path d="M213.023,217.7188 C224.646,217.7188 236.268,217.7188 247.89,217.7188 " fill="none" id="views-webapp" style="stroke: #A80036; stroke-width: 1.0;"/><!--MD5=[a0aed40fffa6e1ee7f539272e7f7a78c]
link webapp to authep--><path d="M370.113,217.7188 C381.656,217.7188 393.2,217.7188 404.743,217.7188 " fill="none" id="webapp-authep" style="stroke: #A80036; stroke-width: 1.0;"/><!--MD5=[b6a3ebaac54bc743300b5a9a906bfc14]
link authep to authp--><path d="M413.118,208.5818 C411.063,189.6187 405.973,142.6528 403.9,123.5247 " fill="none" id="authep-authp" style="stroke: #A80036; stroke-width: 1.0; stroke-dasharray: 7.0,7.0;"/><!--MD5=[59a6325713bc345ea96f63a588e6de44]
link webapp to bus--><path d="M291.891,236.8358 C284.554,245.8388 276.806,257.3228 273,269.2188 C267.064,287.7728 279.402,307.2848 291.217,320.7168 " fill="none" id="webapp-&gt;bus" style="stroke: #A80036; stroke-width: 1.0; stroke-dasharray: 7.0,7.0;"/><polygon fill="#A80036" points="294.846,324.6818,291.7206,315.3419,291.4704,320.9933,285.819,320.743,294.846,324.6818" style="stroke: #A80036; stroke-width: 1.0;"/><text fill="#000000" font-family="sans-serif" font-size="13" lengthAdjust="spacingAndGlyphs" textLength="41" x="274" y="283.7139">publish</text><!--MD5=[59a6325713bc345ea96f63a588e6de44]
link webapp to bus--><!--MD5=[3e7f92bc5848606558a64fb93e8a00bd]
link bus to usersrv--><path d="M291.07,352.8568 C263.788,372.8458 211.581,411.0988 178.898,435.0448 " fill="none" id="bus-&gt;usersrv" style="stroke: #A80036; stroke-width: 1.0; stroke-dasharray: 7.0,7.0;"/><polygon fill="#A80036" points="174.618,438.1808,184.242,436.0884,178.6513,435.2257,179.514,429.635,174.618,438.1808" style="stroke: #A80036; stroke-width: 1.0;"/><text fill="#000000" font-family="sans-serif" font-size="13" lengthAdjust="spacingAndGlyphs" textLength="53" x="241" y="404.7139">consume</text><!--MD5=[b22ba9a1e013cca4acd94abdbbb7bc1d]
link usersrv to userdb--><path d="M150,476.4748 C150,495.8278 150,526.6272 150,548.9832 " fill="none" id="usersrv-&gt;userdb" style="stroke: #A80036; stroke-width: 1.0; stroke-dasharray: 7.0,7.0;"/><polygon fill="#A80036" points="150,554.187,154,545.187,150,549.187,146,545.187,150,554.187" style="stroke: #A80036; stroke-width: 1.0;"/><text fill="#000000" font-family="sans-serif" font-size="13" lengthAdjust="spacingAndGlyphs" textLength="21" x="151" y="520.7139">use</text><!--MD5=[540d7795925a4786892aa96694b5db23]
link bus to matchsrv--><path d="M327.494,352.8568 C355.634,372.8458 409.483,411.0988 443.193,435.0448 " fill="none" id="bus-&gt;matchsrv" style="stroke: #A80036; stroke-width: 1.0; stroke-dasharray: 7.0,7.0;"/><polygon fill="#A80036" points="447.608,438.1808,442.5879,429.7073,443.532,435.2848,437.9545,436.2289,447.608,438.1808" style="stroke: #A80036; stroke-width: 1.0;"/><text fill="#000000" font-family="sans-serif" font-size="13" lengthAdjust="spacingAndGlyphs" textLength="53" x="402" y="404.7139">consume</text><!--MD5=[2ee8607bc9553c60ad8d89eece44c098]
link matchsrv to matchdb--><path d="M473,476.4748 C473,495.8278 473,526.6272 473,548.9832 " fill="none" id="matchsrv-&gt;matchdb" style="stroke: #A80036; stroke-width: 1.0; stroke-dasharray: 7.0,7.0;"/><polygon fill="#A80036" points="473,554.187,477,545.187,473,549.187,469,545.187,473,554.187" style="stroke: #A80036; stroke-width: 1.0;"/><text fill="#000000" font-family="sans-serif" font-size="13" lengthAdjust="spacingAndGlyphs" textLength="21" x="474" y="520.7139">use</text><!--MD5=[6f6e079de3def2366beb4f825c24a209]
link bus to tournamentsrv--><path d="M309,353.0828 C309,372.5308 309,408.9158 309,432.8547 " fill="none" id="bus-&gt;tournamentsrv" style="stroke: #A80036; stroke-width: 1.0; stroke-dasharray: 7.0,7.0;"/><polygon fill="#A80036" points="309,438.0598,313,429.0598,309,433.0598,305,429.0598,309,438.0598" style="stroke: #A80036; stroke-width: 1.0;"/><text fill="#000000" font-family="sans-serif" font-size="13" lengthAdjust="spacingAndGlyphs" textLength="53" x="310" y="404.7139">consume</text><!--MD5=[f3038b5cb908db0ac642a721dce5afd2]
link tournamentsrv to tournamentdb--><path d="M309,476.4748 C309,495.8278 309,526.6272 309,548.9832 " fill="none" id="tournamentsrv-&gt;tournamentdb" style="stroke: #A80036; stroke-width: 1.0; stroke-dasharray: 7.0,7.0;"/><polygon fill="#A80036" points="309,554.187,313,545.187,309,549.187,305,545.187,309,554.187" style="stroke: #A80036; stroke-width: 1.0;"/><text fill="#000000" font-family="sans-serif" font-size="13" lengthAdjust="spacingAndGlyphs" textLength="21" x="310" y="520.7139">use</text><!--MD5=[4bd15f8311c4dcbb2f35fe8fdf0528e6]
link google to webapp--><!--MD5=[249c4bbd0f20104bbad8b2c04064e72a]
@startuml

header Futbolín architecture

title Logical view

package "External" {
    component [Google] as google
    () "Authentication page" as authp
    authp - google
}

component [Web Application] as webapp
() "Authentication endpoint" as authep
() "User Views" as views
note left of views
Server-side rendered
pages probably suffice.
end note
views - webapp
webapp - authep

authep .. authp

queue "Message Bus" as bus

webapp ..> bus : publish

note left of bus
Messages don't need
to be human-readable.
end note

component [User Service] as usersrv
component [Tournament Service] as tournamentsrv
component [Match Service] as matchsrv

database "User Store" as userdb
database "Tournament Store" as tournamentdb
database "Match Store" as matchdb

bus ..> usersrv : consume
usersrv ..> userdb : use
bus ..> matchsrv : consume
matchsrv ..> matchdb : use
bus ..> tournamentsrv : consume
tournamentsrv ..> tournamentdb : use

google .[hidden]. webapp
webapp .[hidden]. bus

@enduml

PlantUML version 1.2020.06(Sun Apr 05 14:38:32 CEST 2020)
(GPL source distribution)
Java Runtime: OpenJDK Runtime Environment
JVM: OpenJDK 64-Bit Server VM
Java Version: 14+36-1461
Operating System: Windows 10
Default Encoding: Cp1252
Language: en
Country: US
--></g></svg>